<svg xmlns="http://www.w3.org/2000/svg" viewBox="0 0 400 245" width="400" height="245"><defs><clipPath id="a"><path d="M30.928 118.27l5.712 6.383 19.922-23.758zm5.712-31.583v8.618l30.649-4.286zm25.355-19.565l-5.758 6.382L81.87 90.879zm31.856 2.422l-8.545.885 7.477 30.14zm22.104 23.199l-6.966-5.031-14.535 27.39zm.928 32.096l-1.81-8.432-29.07 10.621zm-20.71 24.456l4.272-7.5-28.698-11.6zm-31.717 4.24l8.173-2.656-13.56-27.904zM38.033 135.46l7.848 3.494 8.544-29.86zm-7.523-31.211l3.483 7.873 26.284-16.444zm15.185-28.23l-2.647 8.2 30.463 5.403zm30.138-10.76l-7.476 4.285 19.085 24.503zm29.58 12.204l-8.405-1.816-2.182 30.978zm13.839 28.929l-5.062-6.988-22.29 21.568zm-9.01 30.745l.883-8.572-30.927 1.072zM83.032 154l6.362-5.776-23.683-19.985zm-31.485-5.776h8.591l-4.318-30.745zM18 16.903v27.925h10.069c8.18 0 13.53-5.585 13.53-13.845 0-8.26-5.31-14.08-13.609-14.08zm33.156-.472c-4.011 0-6.686 2.32-6.686 5.82 0 1.889.826 3.462 2.4 4.445 1.415.826 3.303 1.337 6.41 1.77l4.17.511v.512c0 2.95-1.141 4.208-3.658 4.208-2.321 0-3.698-1.22-3.855-3.461H45.1c.315 4.208 3.619 6.804 8.693 6.804 5.82 0 8.416-2.478 8.416-8.18v-5.861c0-2.675.197-4.72.59-6.096h-4.72a27.566 27.566 0 0 0-.314 3.382c-.944-2.4-3.422-3.854-6.608-3.854zm14.16 16.716v3.421h3.54v4.956l4.72 1.888v-6.844h4.798v-3.421h-4.799v-9.4c0-2.125.905-3.108 2.871-3.108.787 0 1.298.079 1.928.236v-3.972c-1.141-.236-2.006-.354-3.226-.354-4.72 0-6.293 2.478-6.293 6.45v10.148zm17.148 6.686v4.916h5.113v-4.916zm.236-22.93v19.665h4.72V16.903zm18.958-.472c-5.86 0-9.636 4.05-9.636 10.305 0 6.41 3.697 10.304 9.675 10.304 4.877 0 8.063-2.596 8.653-7.08l-4.602-.747c-.314 2.675-1.848 4.13-4.169 4.13-2.91 0-4.72-2.438-4.72-6.49 0-4.247 1.77-6.686 4.799-6.686 2.36 0 3.815 1.455 4.248 4.209l4.444-.905c-.708-4.366-4.012-7.04-8.692-7.04zm18.21 0c-4.012 0-6.686 2.32-6.686 5.82 0 1.889.826 3.462 2.4 4.445 1.415.826 3.303 1.337 6.41 1.77l4.17.511v.512c0 2.95-1.141 4.208-3.659 4.208-2.32 0-3.697-1.22-3.854-3.461h-4.838c.315 4.208 3.619 6.804 8.692 6.804 5.821 0 8.417-2.478 8.417-8.18v-5.861c0-2.675.197-4.72.59-6.096h-4.72a27.544 27.544 0 0 0-.314 3.382c-.944-2.4-3.422-3.854-6.608-3.854zm1.534 3.343c2.91 0 4.877 2.045 4.877 5.192v1.258l-4.444-.668c-2.596-.433-3.776-1.377-3.776-3.068 0-1.652 1.259-2.714 3.343-2.714zm-68.712 0c2.91 0 4.877 2.045 4.877 5.192v1.258l-4.444-.668c-2.596-.433-3.776-1.377-3.776-3.068 0-1.652 1.259-2.714 3.343-2.714zm-29.616 1.101h4.759c5.428 0 8.456 4.563 8.456 10.108 0 5.664-2.91 9.872-8.377 9.872h-4.838z" clip-rule="evenodd"/></clipPath><clipPath id="b"><path d="M0 0h149v171H0z"/></clipPath><clipPath id="c"><path d="M0 747h714V0H0z"/></clipPath><clipPath id="d"><path d="M0 747h714V0H0z"/></clipPath><clipPath id="e"><path d="M0 747h714V0H0z"/></clipPath><clipPath id="f"><path d="M0 747h714V0H0z"/></clipPath><clipPath id="g"><path d="M0 747h714V0H0z"/></clipPath><clipPath id="h"><path d="M0 747h714V0H0z"/></clipPath><clipPath id="i"><path d="M0 747h714V0H0z"/></clipPath><clipPath id="j"><path d="M0 747h714V0H0z"/></clipPath></defs><path fill="none" pointer-events="none" d="M0 0h400v245H0z"/><path fill="#EA4335" d="M218.255 34.756h4.11l11.714-11.714.575-4.973C212.853-1.174 179.58.9 160.337 22.7a52.665 52.665 0 0 0-11.34 21.056 6.372 6.372 0 0 1 4.11-.246l23.429-3.864s1.191-1.973 1.809-1.85c10.42-11.445 27.96-12.78 39.991-3.042h-.08z"/><path fill="#4285F4" d="M250.768 43.757a52.781 52.781 0 0 0-15.906-25.647l-16.441 16.44a29.222 29.222 0 0 1 10.727 23.182v2.918c8.083 0 14.632 6.551 14.632 14.633s-6.55 14.633-14.632 14.633h-29.264l-2.92 2.96v17.55l2.92 2.919h29.264c21.021.162 38.192-16.744 38.356-37.765a38.06 38.06 0 0 0-16.736-31.823z"/><path fill="#34A853" d="M170.576 113.18h29.266V89.752h-29.266c-2.084 0-4.144-.45-6.042-1.316l-4.109 1.275-11.797 11.712-1.027 4.112a37.861 37.861 0 0 0 22.975 7.645z"/><path fill="#FBBC05" d="M170.576 37.18c-21.02.126-37.957 17.269-37.832 38.289a38.053 38.053 0 0 0 14.857 29.94l16.974-16.974c-7.364-3.327-10.636-11.994-7.308-19.36 3.327-7.364 11.993-10.637 19.359-7.31a14.631 14.631 0 0 1 7.31 7.31L200.909 52.1a38.018 38.018 0 0 0-30.333-14.92z"/><g fill="#5F6368"><path d="M39.243 225.058a25.294 25.294 0 0 1-18.328-7.526 24.43 24.43 0 0 1-7.692-18.104 24.463 24.463 0 0 1 7.692-18.107 25.301 25.301 0 0 1 18.328-7.665 24.556 24.556 0 0 1 17.578 7.082l-4.942 5.027a17.805 17.805 0 0 0-12.635-5 17.606 17.606 0 0 0-13.052 5.555 18.134 18.134 0 0 0-5.36 13.19 18.132 18.132 0 0 0 5.36 13.024c7.151 7.126 18.677 7.262 25.994.305a14.778 14.778 0 0 0 3.804-8.636H39.327v-7.11h23.577c.231 1.433.324 2.884.277 4.333a22.223 22.223 0 0 1-6.081 16.385 23.635 23.635 0 0 1-17.857 7.247zm54.817-4.72c-6.573 6.302-16.947 6.302-23.52 0a15.832 15.832 0 0 1-4.805-11.802 15.854 15.854 0 0 1 4.805-11.802c6.58-6.288 16.941-6.288 23.52 0a15.854 15.854 0 0 1 4.805 11.802 15.828 15.828 0 0 1-4.832 11.802h.027zM75.733 215.7a8.998 8.998 0 0 0 13.135 0 9.887 9.887 0 0 0 2.777-7.164 9.915 9.915 0 0 0-2.777-7.193c-3.492-3.642-9.275-3.765-12.917-.273a9.916 9.916 0 0 0-3.05 7.466 9.882 9.882 0 0 0 2.804 7.164h.028zm54.485 4.638c-6.575 6.302-16.947 6.302-23.522 0a15.829 15.829 0 0 1-4.804-11.802 15.85 15.85 0 0 1 4.804-11.802c6.575-6.303 16.947-6.303 23.522 0a15.853 15.853 0 0 1 4.804 11.802 15.836 15.836 0 0 1-4.804 11.802zm-18.33-4.638c3.398 3.627 9.092 3.814 12.718.418.144-.134.284-.274.418-.418a9.89 9.89 0 0 0 2.778-7.164 9.912 9.912 0 0 0-2.778-7.193c-3.492-3.642-9.275-3.765-12.918-.273a9.916 9.916 0 0 0-3.05 7.466 9.888 9.888 0 0 0 2.805 7.164h.028zm42.1 24.187a14.548 14.548 0 0 1-9.248-2.942 17.039 17.039 0 0 1-5.387-6.832l6.332-2.637a10.675 10.675 0 0 0 3.137 4.136 7.912 7.912 0 0 0 5.193 1.75 8.33 8.33 0 0 0 6.47-2.499 10.139 10.139 0 0 0 2.306-7.22v-2.388h-.25a10.58 10.58 0 0 1-8.692 3.75 15.072 15.072 0 0 1-11.108-4.833 15.97 15.97 0 0 1-4.75-11.635 16.135 16.135 0 0 1 4.75-11.72 15.05 15.05 0 0 1 11.108-4.859 11.924 11.924 0 0 1 5.11 1.139 10.264 10.264 0 0 1 3.61 2.638h.25v-2.638h6.886v29.575a17.241 17.241 0 0 1-4.416 12.913 15.552 15.552 0 0 1-11.301 4.302zm.5-21.326c2.4.052 4.7-.965 6.276-2.778a10.27 10.27 0 0 0 2.527-7.108c.103-2.649-.8-5.238-2.527-7.249a8.056 8.056 0 0 0-6.276-2.777 8.583 8.583 0 0 0-6.498 2.777 10.134 10.134 0 0 0-2.778 7.192 9.94 9.94 0 0 0 2.778 7.11 8.61 8.61 0 0 0 6.498 2.833zm27.464-43.044v48.542h-7.248v-48.542h7.248zm19.884 49.541a15.773 15.773 0 0 1-11.692-4.747 16.084 16.084 0 0 1-4.693-11.775 16.28 16.28 0 0 1 4.526-11.886 14.89 14.89 0 0 1 11.108-4.638c1.905-.02 3.795.35 5.553 1.084a13.073 13.073 0 0 1 4.25 2.776 19.396 19.396 0 0 1 2.776 3.362 19.832 19.832 0 0 1 1.639 3.248l.75 1.888-22.216 9.137a8.329 8.329 0 0 0 7.998 4.997 9.464 9.464 0 0 0 8.136-4.58l5.553 3.748a18.302 18.302 0 0 1-5.331 5.054 15.103 15.103 0 0 1-8.357 2.332zm-9.276-17.023l14.774-6.137a5.118 5.118 0 0 0-2.305-2.528 7.557 7.557 0 0 0-3.804-.972 8.586 8.586 0 0 0-5.972 2.64 8.803 8.803 0 0 0-2.693 6.997zM254.015 225.058c-12.636.218-23.056-9.848-23.273-22.483-.006-.31-.006-.619.002-.926-.293-12.635 9.71-23.114 22.344-23.407.31-.007.619-.01.927-.003a20.717 20.717 0 0 1 16.467 7.331l-3.999 3.888a15.109 15.109 0 0 0-12.441-5.692 16.967 16.967 0 0 0-12.358 4.942 17.334 17.334 0 0 0-5.026 12.941 17.33 17.33 0 0 0 5.026 12.94 16.966 16.966 0 0 0 12.358 4.945 17.668 17.668 0 0 0 13.885-6.5l4 4a21.815 21.815 0 0 1-7.693 5.859 23.537 23.537 0 0 1-10.219 2.165zM282.673 224.059h-5.748V179.21h5.748v44.848zM292.06 197.066c6.269-6.226 16.39-6.226 22.66 0a16.247 16.247 0 0 1 4.443 11.664 16.249 16.249 0 0 1-4.443 11.663c-6.27 6.227-16.391 6.227-22.66 0a16.25 16.25 0 0 1-4.444-11.663 16.247 16.247 0 0 1 4.443-11.664zm4.275 19.718c3.679 3.887 9.813 4.057 13.702.378.13-.122.255-.249.378-.378a11.12 11.12 0 0 0 2.971-8.054 11.117 11.117 0 0 0-2.971-8.054c-3.679-3.887-9.813-4.056-13.7-.38-.13.124-.257.25-.38.38a11.107 11.107 0 0 0-2.97 8.054 11.1 11.1 0 0 0 2.998 8.024l-.028.03zM351.014 224.059h-5.553v-4.25h-.167a10.689 10.689 0 0 1-4.055 3.833 11.334 11.334 0 0 1-5.692 1.528 10.807 10.807 0 0 1-8.72-3.5c-2.104-2.661-3.161-6-2.971-9.387V193.4h5.748v17.829c0 5.719 2.527 8.58 7.58 8.58a7.052 7.052 0 0 0 5.832-2.777 10.471 10.471 0 0 0 2.25-6.637V193.4h5.748v30.658zM370.536 225.058a13.49 13.49 0 0 1-10.275-4.692 16.664 16.664 0 0 1-4.304-11.636 16.66 16.66 0 0 1 4.304-11.637 13.501 13.501 0 0 1 10.275-4.693 13.05 13.05 0 0 1 6.276 1.5 10.648 10.648 0 0 1 4.166 3.749h.25l-.25-4.248v-14.19h5.748v44.848h-5.554v-4.25h-.25a10.62 10.62 0 0 1-4.166 3.75 13.017 13.017 0 0 1-6.22 1.499zm.945-5.249a9.17 9.17 0 0 0 6.914-2.998 11.248 11.248 0 0 0 2.777-8.081 11.245 11.245 0 0 0-2.777-8.081c-3.488-3.835-9.424-4.114-13.259-.627-.218.2-.427.409-.625.627a11.1 11.1 0 0 0-2.777 8.053 11.101 11.101 0 0 0 2.777 8.053 9.16 9.16 0 0 0 6.97 3.054z"/></g></svg>
